<?xml version="1.0" encoding="UTF-8" standalone="no"?>
<svg width="513px" height="513px" viewBox="0 0 513 513" version="1.1" xmlns="http://www.w3.org/2000/svg" xmlns:xlink="http://www.w3.org/1999/xlink" xmlns:sketch="http://www.bohemiancoding.com/sketch/ns">
    <title>Slice 1</title>
    <description>Created with Sketch (http://www.bohemiancoding.com/sketch)</description>
    <defs></defs>
    <g id="Page 1" fill="#D8D8D8" fill-rule="evenodd">
        <g id="Group" fill="#000000">
            <path d="M256.898438,0.21484375 C115.513435,0.21484375 0.8984375,114.829842 0.8984375,256.214844 C0.8984375,397.599846 115.513435,512.214844 256.898438,512.214844 C398.28344,512.214844 512.898438,397.599846 512.898438,256.214844 C512.898438,114.829842 398.283447,0.21484375 256.898438,0.21484375 L256.898438,0.21484375 Z M408.926453,408.242859 C389.167452,428.000858 366.170452,443.508858 340.572456,454.335857 C334.069457,457.085857 327.465456,459.499857 320.772457,461.581857 L320.77243,423.214844 C320.77243,403.047844 313.855431,388.214844 300.02243,378.714844 C308.68943,377.881844 316.64743,376.714844 323.89743,375.214844 C331.14743,373.714844 338.81443,371.547844 346.89743,368.714844 C354.980431,365.881844 362.230431,362.506844 368.64743,358.589844 C375.06443,354.672844 381.230431,349.589844 387.14743,343.339844 C393.06443,337.089844 398.02243,330.006844 402.02243,322.089844 C406.02243,314.172844 409.18943,304.672844 411.52243,293.589844 C413.855431,282.506844 415.02243,270.297844 415.02243,256.964844 C415.02243,231.131844 406.605431,209.131844 389.77243,190.964844 C397.43943,170.964844 396.605431,149.214844 387.27243,125.714844 L381.02243,124.964844 C376.68943,124.464844 368.89743,126.297844 357.64743,130.464844 C346.39743,134.631844 333.77243,141.464844 319.77243,150.964844 C299.93943,145.464844 279.355431,142.714844 258.02243,142.714844 C236.52243,142.714844 216.02243,145.464844 196.52243,150.964844 C187.68943,144.964844 179.31443,140.006844 171.39743,136.089844 C163.480431,132.172844 157.14743,129.506844 152.39743,128.089844 C147.64743,126.672844 143.230431,125.797844 139.14743,125.464844 C135.06443,125.131844 132.43943,125.047844 131.27243,125.214844 C130.105431,125.381844 129.27243,125.547844 128.77243,125.714844 C119.43943,149.381844 118.605431,171.131844 126.27243,190.964844 C109.43943,209.131844 101.02243,231.131844 101.02243,256.964844 C101.02243,270.297844 102.18943,282.506844 104.52243,293.589844 C106.85543,304.672844 110.02243,314.172844 114.02243,322.089844 C118.02243,330.006844 122.980431,337.089844 128.89743,343.339844 C134.81443,349.589844 140.980431,354.672844 147.39743,358.589844 C153.81443,362.506844 161.06443,365.881844 169.14743,368.714844 C177.230431,371.547844 184.89743,373.714844 192.14743,375.214844 C199.39743,376.714844 207.355431,377.881844 216.02243,378.714844 C202.355431,388.047844 195.52243,402.881844 195.52243,423.214844 L195.52243,462.329845 C187.973431,460.082845 180.532431,457.427845 173.222431,454.335845 C147.625431,443.508846 124.628429,428.000846 104.869434,408.242847 C85.1114349,388.483846 69.6024361,365.486846 58.7764359,339.888851 C47.5774384,313.409851 41.8984375,285.257843 41.8984375,256.214844 C41.8984375,227.171844 47.5774374,199.019844 58.7774372,172.539841 C69.6044369,146.942841 85.1124363,123.945839 104.870436,104.186844 C124.628435,84.4278488 147.626436,68.9198456 173.223433,58.0938454 C199.70343,46.8938446 227.855438,41.2148438 256.898438,41.2148438 C285.941437,41.2148438 314.093437,46.8938437 340.573441,58.0938435 C366.17144,68.9208431 389.168442,84.4288425 408.927437,104.186842 C428.685436,123.944841 444.193436,146.942842 455.020435,172.539839 C466.219452,199.019836 471.898438,227.171844 471.898438,256.214844 C471.898438,285.257843 466.219438,313.409843 455.019438,339.889847 C444.192444,365.486847 428.684448,388.484833 408.926453,408.242859 L408.926453,408.242859 Z M408.926453,408.242859" id="Shape"></path>
        </g>
    </g>
</svg>